{"glyphs":{"0":{"ha":400,"x_min":0,"x_max":0,"o":"m 180 764 b 245 777 206 773 227 777 b 334 659 309 777 334 727 b 197 321 334 536 254 354 b 127 298 171 308 148 298 b 65 407 91 298 65 330 b 66 431 65 415 66 422 b 180 764 73 541 125 690 z m 214 289 b 369 659 289 331 369 519 b 251 817 369 747 336 817 b 163 798 227 817 197 811 b 27 406 126 783 27 562 b 64 285 27 355 38 312 b 123 260 81 267 102 260 b 214 289 155 260 187 274 z "},"1":{"ha":210,"x_min":0,"x_max":0,"o":"m 180 696 b 161 715 180 707 172 715 b 144 701 153 715 146 709 b 28 262 142 697 28 297 b 47 243 28 251 37 243 b 66 258 57 243 65 250 b 179 690 111 461 179 690 b 180 696 179 692 180 694 z "},"2":{"ha":427,"x_min":0,"x_max":0,"o":"m 104 502 b 123 521 115 502 123 510 l 123 522 b 296 685 123 624 225 685 b 355 656 323 685 346 677 b 361 629 359 650 361 640 b 172 363 361 566 294 449 b 72 305 130 334 96 317 b 28 269 43 292 28 283 b 61 247 28 251 42 247 l 71 247 b 85 248 75 247 80 248 l 92 248 b 305 256 133 251 202 256 b 324 275 316 256 324 264 b 305 294 324 286 316 294 b 123 289 221 294 165 292 b 397 628 301 385 397 532 b 297 723 397 684 365 722 l 294 723 b 85 524 203 723 85 647 b 104 502 85 503 100 502 z "},"3":{"ha":416,"x_min":0,"x_max":0,"o":"m 47 305 b 28 288 37 305 28 298 b 38 271 28 281 33 274 b 197 222 98 237 152 222 b 384 410 317 222 384 324 b 321 518 384 457 363 499 b 382 595 350 540 374 564 b 388 636 387 610 388 624 b 283 734 388 697 346 734 b 171 700 250 734 212 723 b 161 684 165 697 161 690 b 180 665 161 674 170 665 b 285 697 187 665 237 697 b 317 690 296 697 307 694 b 353 632 328 685 353 663 b 270 528 353 604 334 567 b 122 472 201 526 127 476 b 110 450 114 465 110 457 b 136 431 110 439 119 431 l 144 431 b 279 490 171 437 227 458 b 347 407 324 486 347 450 b 197 260 347 342 296 260 b 57 304 157 260 111 273 b 47 305 54 305 52 305 z "},"4":{"ha":446,"x_min":0,"x_max":0,"o":"m 416 727 b 397 746 416 738 408 746 b 378 732 389 746 381 741 b 321 545 365 682 343 613 b 71 525 319 545 76 525 b 187 709 81 544 187 690 b 168 728 187 720 179 728 b 152 719 165 728 157 728 b 28 524 103 633 33 545 b 27 515 28 521 27 518 b 76 488 27 494 49 488 b 125 491 91 488 109 490 b 309 507 167 495 225 502 b 224 258 267 378 224 258 b 224 252 222 256 224 255 b 241 233 224 241 231 233 b 260 245 250 233 258 239 b 416 727 262 251 416 694 z "},"5":{"ha":502,"x_min":0,"x_max":0,"o":"m 454 696 b 472 715 465 696 472 704 b 457 734 472 724 467 732 b 357 741 423 739 389 741 b 191 732 301 741 247 736 b 174 713 182 731 174 723 b 179 700 174 711 174 705 b 152 610 174 685 187 696 b 137 560 142 589 137 572 b 138 549 137 556 137 553 b 160 532 141 541 152 533 b 213 528 179 529 197 528 b 305 532 248 528 278 532 b 362 518 327 532 346 529 b 410 431 381 505 410 471 b 321 324 410 396 388 358 b 160 289 277 302 220 289 b 53 304 125 289 88 293 l 47 304 b 28 285 37 304 28 296 b 42 267 28 277 34 270 b 160 250 81 255 121 250 b 449 430 312 250 449 332 b 438 477 449 445 445 461 b 315 570 407 547 365 567 l 304 570 b 214 567 275 570 245 567 b 176 568 202 567 189 567 b 216 693 186 602 214 647 l 216 696 b 361 703 283 701 330 703 b 454 696 425 703 431 696 z "},"6":{"ha":369,"x_min":0,"x_max":0,"o":"m 94 491 b 213 543 122 525 171 543 b 301 476 260 543 301 521 b 224 343 301 444 279 399 b 104 264 187 307 137 264 b 75 286 91 264 81 270 b 66 342 69 300 66 319 b 94 491 66 380 75 430 z m 216 730 b 197 749 216 741 208 749 b 182 742 194 749 187 749 b 28 342 92 632 28 457 b 85 228 28 282 46 239 b 102 227 91 227 96 227 b 251 316 138 227 187 252 b 339 467 308 373 335 423 l 339 477 b 209 582 339 544 278 582 b 118 559 179 582 148 575 b 216 730 168 681 216 715 z "},"7":{"ha":362,"x_min":0,"x_max":0,"o":"m 52 250 b 71 231 52 239 60 231 b 87 239 77 231 84 233 b 332 671 90 243 321 609 b 334 686 332 675 334 681 b 239 741 334 709 321 741 l 231 741 b 84 732 186 739 133 732 b 49 734 72 732 60 732 l 47 734 b 28 715 37 734 28 726 b 46 696 28 705 37 697 b 84 694 58 694 71 694 b 247 703 141 694 205 703 b 293 692 270 703 288 700 b 294 684 294 690 294 686 b 279 639 294 673 289 656 b 54 259 187 468 54 259 b 52 250 53 256 52 254 z "},"8":{"ha":450,"x_min":0,"x_max":0,"o":"m 205 411 b 273 338 250 378 273 355 b 228 298 273 323 258 312 b 118 266 176 277 137 266 b 104 275 104 266 104 271 b 205 411 104 300 146 368 z m 66 589 b 324 701 66 637 233 701 b 382 675 355 701 378 694 b 384 667 382 673 384 670 b 206 456 384 614 301 507 b 66 589 122 514 66 552 z m 321 741 b 30 587 260 739 30 688 b 60 522 30 567 38 547 b 172 434 85 494 119 471 b 68 277 129 400 68 328 b 69 262 68 271 68 267 b 121 229 76 237 96 229 b 243 264 163 229 218 254 b 312 336 262 273 312 296 b 241 431 312 361 294 392 b 420 669 332 483 420 594 b 388 727 420 693 411 713 b 321 741 370 736 349 741 z "},"9":{"ha":382,"x_min":0,"x_max":0,"o":"m 148 416 b 66 481 72 416 66 465 b 254 720 66 552 179 720 b 296 693 270 720 285 712 b 316 601 308 671 316 640 b 296 483 316 566 309 525 b 148 416 262 441 198 416 z m 107 248 b 126 229 107 239 115 229 b 134 232 129 229 132 231 b 353 597 288 312 353 473 b 254 758 353 688 317 758 l 251 758 b 28 481 167 757 28 594 b 92 389 28 441 47 407 b 151 378 110 382 130 378 b 263 408 189 378 229 389 b 117 264 231 351 183 300 b 107 248 111 262 107 255 z "},"\u0000":{"ha":1424,"x_min":0,"x_max":0,"o":"m 34 0 l 1390 0 l 1390 1356 l 34 1356 z "},"a":{"ha":433,"x_min":0,"x_max":0,"o":"m 151 524 b 119 486 144 515 119 486 b 57 418 102 467 79 435 b 31 406 46 410 38 406 b 11 438 18 406 11 422 b 18 467 11 449 14 458 b 144 524 19 468 53 524 z m 488 514 b 469 533 488 525 480 533 b 296 448 448 533 359 448 b 259 461 282 448 270 452 b 203 551 224 492 221 544 b 141 562 184 557 163 562 b -27 441 60 562 -27 513 b -20 404 -27 429 -26 418 b 31 369 -20 403 -4 369 b 81 389 45 369 62 374 b 148 460 110 412 134 446 b 187 506 163 476 171 492 b 296 410 197 479 227 410 b 311 411 301 410 305 410 b 480 498 365 418 418 457 b 488 514 486 500 488 507 z "},"b":{"ha":385,"x_min":0,"x_max":0,"o":"m 54 494 b 142 578 79 540 122 578 b 153 564 148 578 153 572 l 153 562 l 153 560 l 153 559 b 91 422 153 537 153 488 b 46 381 71 400 61 392 b 43 380 45 381 45 380 b 35 373 41 378 38 376 b 19 361 30 369 24 366 b 26 385 22 368 24 376 b 27 396 26 388 26 392 b 30 406 28 399 28 401 b 38 442 33 416 34 429 z m 193 954 b 174 972 193 964 184 972 b 156 959 165 972 159 967 l 19 509 b -18 369 -4 465 -15 416 b 1 350 -18 359 -9 350 b 16 357 7 350 12 353 b 11 345 14 354 11 350 b 30 326 11 334 19 326 l 33 326 b 35 327 34 326 35 327 b 92 347 56 335 75 340 b 121 358 102 351 111 355 b 431 498 259 410 331 437 b 441 514 437 500 441 507 b 422 533 441 525 433 533 b 411 530 418 533 414 532 b 121 399 317 472 248 446 b 191 555 157 439 191 492 l 191 559 l 191 564 b 140 616 191 595 167 616 b 99 600 126 616 111 612 b 81 587 92 595 87 591 l 191 948 b 193 951 191 948 193 949 z "},"c":{"ha":372,"x_min":0,"x_max":0,"o":"m 165 522 b 103 578 165 524 146 578 b 54 557 90 578 73 572 b -11 441 18 529 -11 481 b 85 369 -11 401 16 369 b 132 373 99 369 114 370 b 418 498 235 389 336 448 b 427 514 423 500 427 507 b 408 533 427 525 419 533 b 126 410 392 533 258 430 b 87 407 111 407 98 407 b 26 444 42 407 26 422 b 103 540 26 483 81 540 b 109 538 106 540 107 540 b 146 503 123 526 130 503 b 165 522 157 503 165 511 z "},"d":{"ha":434,"x_min":0,"x_max":0,"o":"m 60 509 b 122 528 71 515 95 528 b 138 526 127 528 133 528 b 7 374 113 471 72 395 b 4 385 5 377 4 380 b 60 509 4 415 33 488 z m 292 921 b 273 939 292 932 283 939 b 254 925 269 939 258 939 b 153 562 228 834 201 684 b 121 566 142 564 132 566 b 38 540 76 566 39 541 b -34 387 7 517 -34 439 b -22 349 -34 370 -30 358 b 8 336 -15 340 -3 336 b 199 578 11 336 115 340 l 199 549 b 274 403 199 434 233 403 b 363 433 304 403 336 419 b 480 498 400 450 441 473 b 488 514 486 500 488 507 b 469 533 488 525 480 533 b 273 439 458 533 320 439 l 271 439 b 237 552 243 444 237 500 b 240 623 237 581 239 606 b 292 921 252 753 292 918 z "},"e":{"ha":395,"x_min":0,"x_max":0,"o":"m 66 525 b 130 556 85 545 113 556 b 140 555 134 556 137 556 b 148 534 145 552 148 551 l 144 532 b 96 521 144 532 126 521 b 66 525 87 521 77 522 z m 450 514 b 431 533 450 524 442 533 b 123 444 427 533 239 444 b 77 450 106 444 91 445 b 52 490 60 457 52 467 b 98 484 65 486 81 484 b 186 534 138 484 186 496 b 130 594 186 578 161 594 b 16 511 84 594 26 556 b 14 486 15 502 14 494 b 122 407 14 427 60 407 b 441 498 227 407 377 463 b 450 514 446 500 450 507 z "},"f":{"ha":273,"x_min":0,"x_max":0,"o":"m -8 297 b -5 275 -5 290 -5 283 b -22 218 -5 254 -12 232 b -8 297 -19 243 -14 269 z m 137 598 b 156 617 148 598 156 606 b 130 636 156 625 146 636 b -20 401 98 636 38 593 b -117 365 -54 389 -85 377 b -186 327 -168 362 -186 343 b -165 307 -186 316 -176 307 b -156 309 -163 307 -160 308 b -90 328 -127 321 -111 328 b -42 321 -77 328 -62 326 b -62 172 -54 266 -62 213 l -62 163 b -43 145 -62 152 -54 145 b -35 146 -41 145 -38 145 b 33 278 3 163 33 225 b 4 345 33 305 24 331 b 11 372 7 354 8 362 b 317 498 237 456 285 480 b 327 514 323 500 327 507 b 308 533 327 524 319 533 b 298 530 305 533 301 532 b 26 418 252 505 163 468 b 137 598 46 477 91 598 z "},"g":{"ha":400,"x_min":0,"x_max":0,"o":"m 103 347 b 19 235 81 298 38 243 b 103 347 24 285 72 327 z m 56 472 b 54 484 56 473 54 477 b 92 536 54 503 60 536 b 111 533 98 536 104 536 b 56 472 91 510 75 486 z m 454 514 b 435 533 454 525 446 533 b 426 530 431 533 429 532 b 172 427 376 502 274 473 b 199 566 194 521 199 545 b 180 589 199 575 194 589 b 155 576 174 589 165 586 l 141 563 b 94 574 123 571 107 574 b 16 483 41 574 16 524 b 28 441 16 467 20 450 b 61 433 35 433 50 429 b 155 522 114 456 141 515 b 126 406 146 477 138 442 b -19 237 19 349 -19 281 b 7 197 -19 216 -9 199 b 15 195 9 197 12 195 b 65 224 35 195 54 213 b 157 378 80 239 126 286 b 454 514 289 445 454 479 z "},"h":{"ha":357,"x_min":0,"x_max":0,"o":"m -30 326 b -11 304 -30 315 -23 304 b 8 317 -3 304 5 309 b 113 498 15 339 79 461 b 118 471 117 491 118 481 b 111 392 118 446 111 416 b 121 357 111 377 114 365 b 145 346 127 349 137 346 b 193 365 164 346 184 361 b 403 498 298 433 346 460 b 412 514 408 500 412 507 b 393 533 412 525 404 533 b 149 385 381 533 170 392 l 149 393 b 155 469 149 411 155 441 b 148 511 155 484 153 499 b 117 541 138 533 127 541 b 52 479 91 541 65 499 b 193 947 96 647 193 947 l 193 952 b 174 971 193 963 184 971 b 156 959 165 971 159 967 b -30 326 155 952 -30 355 z "},"i":{"ha":277,"x_min":0,"x_max":0,"o":"m 66 534 b 47 553 66 545 58 553 b 30 540 39 553 33 548 b 7 486 26 525 14 507 b 0 448 4 476 0 461 b 61 392 0 420 12 392 b 114 400 75 392 94 395 b 323 498 180 418 264 460 b 331 514 328 500 331 507 b 312 533 331 525 323 533 b 65 430 308 533 137 430 b 45 434 57 430 50 431 b 43 475 39 438 35 448 b 66 534 49 490 66 522 z m 110 642 b 91 661 110 652 102 661 b 77 655 88 661 83 661 l 57 631 b 53 618 54 628 53 623 b 72 600 53 608 61 600 b 85 606 77 600 81 602 l 106 629 b 110 642 109 632 110 637 z "},"j":{"ha":263,"x_min":0,"x_max":0,"o":"m -47 281 b -138 170 -57 259 -102 170 b -148 172 -141 170 -145 171 b -159 187 -153 175 -159 180 b -47 281 -159 202 -136 228 z m 38 563 b 19 544 27 563 19 555 l 19 540 b 20 525 19 536 20 532 b -22 339 20 492 9 425 b -198 183 -117 285 -198 232 b -195 168 -198 178 -197 174 b -138 132 -191 157 -170 132 b 8 313 -100 132 -49 168 b 309 498 60 343 224 444 b 319 514 315 500 319 507 b 300 533 319 525 311 533 b 289 530 296 533 292 532 b 27 368 252 507 252 506 b 58 522 31 380 58 469 b 38 563 58 545 53 563 z m 66 632 b 47 651 66 643 58 651 b 9 612 35 651 9 623 b 28 593 9 601 18 593 b 66 632 41 593 66 620 z "},"k":{"ha":293,"x_min":0,"x_max":0,"o":"m -16 401 b -53 288 -42 331 -53 298 b -50 283 -53 285 -52 283 l -47 279 l -43 275 l -37 274 l -31 274 l -27 275 b -16 285 -23 277 -19 278 b 22 370 -1 313 9 343 l 33 370 b 336 496 132 370 330 495 b 347 514 343 499 347 506 b 328 533 347 524 339 533 b 42 408 313 533 137 415 b 130 507 56 429 130 452 b 111 528 130 518 122 528 b 91 518 106 528 99 525 b 49 479 66 496 56 486 b 194 967 119 696 194 967 l 194 972 b 176 991 194 983 187 991 b 157 977 168 991 160 985 b -16 401 47 574 -16 407 z "},"l":{"ha":279,"x_min":0,"x_max":0,"o":"m 190 932 b 171 951 190 943 182 951 b 153 937 163 951 156 945 b 7 472 153 937 64 644 b 0 423 4 464 0 444 b 43 361 0 393 8 361 b 58 362 47 361 53 361 b 183 416 84 368 125 385 b 324 498 245 450 309 490 b 335 514 330 500 335 507 b 316 533 335 524 327 533 b 43 397 301 533 92 397 l 42 397 b 38 420 39 401 38 411 b 43 460 38 434 41 450 b 189 926 100 632 189 926 b 190 932 189 928 190 930 z "},"m":{"ha":430,"x_min":0,"x_max":0,"o":"m 80 575 b 61 594 80 586 72 594 b 43 581 53 594 46 589 b 23 519 43 581 33 551 b -22 395 4 487 -22 412 b -3 376 -22 382 -12 376 b 58 505 8 376 16 376 b 52 431 57 475 54 450 b 49 395 50 416 49 404 b 53 374 49 387 50 380 b 83 368 60 363 72 359 b 142 450 109 385 125 419 b 187 515 156 476 171 502 b 189 506 187 513 189 509 b 201 441 193 463 191 456 b 245 416 209 427 225 416 l 250 416 b 476 498 316 422 400 450 b 484 514 481 500 484 507 b 465 533 484 525 476 533 b 444 522 463 533 456 529 b 247 454 407 502 328 461 b 227 491 239 454 231 454 l 227 495 b 206 557 221 547 221 551 b 195 559 202 559 199 559 b 115 477 161 559 126 498 b 99 450 110 468 104 458 b 91 437 96 446 94 441 b 98 510 95 467 98 491 b 75 557 98 540 91 555 b 79 570 75 559 79 570 l 79 572 b 80 575 79 574 80 575 z "},"n":{"ha":357,"x_min":0,"x_max":0,"o":"m 90 609 b 71 628 90 620 81 628 b 53 614 62 628 56 623 b -15 391 52 612 -15 397 b 4 372 -15 380 -5 372 b 23 389 16 372 16 373 b 24 392 23 391 24 391 b 28 399 24 392 26 395 b 117 537 42 425 85 513 b 114 505 118 528 115 517 b 110 467 113 492 110 479 b 115 435 110 456 111 445 b 160 407 122 419 140 407 b 404 499 229 407 361 467 b 411 514 408 503 411 507 b 392 533 411 525 403 533 b 372 524 388 533 381 530 b 277 475 355 513 328 495 b 160 445 233 457 186 445 b 148 460 152 445 148 445 b 153 524 148 471 149 490 l 153 534 b 123 581 153 562 142 581 b 69 543 109 581 91 570 b 88 604 79 575 88 604 b 90 606 88 604 90 605 z "},"o":{"ha":315,"x_min":0,"x_max":0,"o":"m 41 465 b 92 438 45 460 56 446 b 45 414 77 423 57 414 b 34 422 38 414 35 416 l 34 430 b 41 465 34 445 38 460 z m 94 544 b 119 496 113 526 119 511 b 118 484 119 492 119 488 b 104 475 117 477 111 475 b 60 513 87 475 60 491 b 62 525 60 517 61 521 b 94 544 65 532 88 543 z m 369 514 b 350 533 369 525 361 533 b 153 471 340 533 264 473 b 156 492 155 477 156 486 b 94 582 156 538 125 582 b 84 581 91 582 87 582 b 28 543 84 581 39 564 b -3 433 20 526 -3 475 b 24 380 -3 410 4 389 b 46 374 31 376 38 374 b 137 433 80 374 118 406 l 144 433 b 369 514 247 433 369 486 z "},"p":{"ha":385,"x_min":0,"x_max":0,"o":"m 56 445 b 138 522 87 491 122 522 b 145 519 141 522 144 521 b 148 511 146 517 148 514 b 56 445 148 491 100 460 z m 77 576 b 60 595 77 587 71 595 b 41 582 52 595 43 590 b -16 396 22 517 3 456 b -118 46 -99 232 -118 50 b -99 27 -118 35 -110 27 b -81 41 -90 27 -83 33 b 19 381 -54 155 -18 264 b 30 401 23 388 26 395 b 62 407 42 400 50 403 b 433 498 170 414 315 419 b 441 514 438 500 441 507 b 422 533 441 525 433 533 b 151 452 400 533 363 472 b 187 513 176 473 187 495 b 140 560 187 540 164 560 l 137 560 b 60 510 113 559 85 538 b 77 576 72 549 77 572 z "},"q":{"ha":365,"x_min":0,"x_max":0,"o":"m 178 587 b 157 608 178 598 168 608 b 144 602 153 608 148 606 b 5 467 43 571 5 505 b 11 446 5 458 8 452 b 58 414 16 438 33 414 b 81 420 65 414 73 416 b 75 397 79 412 77 406 b 68 374 72 389 71 382 b -5 343 26 357 -5 343 b -18 326 -12 340 -18 334 b 1 307 -18 315 -9 307 b 14 309 5 307 7 307 b 52 321 20 312 31 316 b 12 144 23 224 12 172 b 30 110 12 121 19 114 b 37 109 33 109 34 109 b 95 174 58 109 77 141 b 98 179 96 175 96 178 b 161 285 129 239 149 267 b 182 323 172 300 178 308 b 183 335 183 327 183 331 b 156 372 183 350 176 365 b 411 498 305 438 374 472 b 419 514 416 502 419 507 b 400 533 419 525 411 533 b 389 529 396 533 392 532 b 114 393 363 511 304 476 b 163 541 129 441 149 500 b 178 587 172 568 178 586 z m 123 553 b 83 469 114 521 106 496 b 58 452 72 457 64 452 b 45 467 53 452 45 457 b 123 553 45 502 81 533 z m 95 332 l 98 332 b 133 338 106 334 121 338 b 145 335 138 338 142 336 b 130 307 144 326 140 320 b 65 197 118 289 98 259 b 57 183 62 191 60 187 b 53 176 56 180 54 179 b 95 332 60 216 75 266 z "},"r":{"ha":288,"x_min":0,"x_max":0,"o":"m 87 597 b 68 616 87 608 79 616 b 50 604 60 616 53 610 b -7 397 23 534 -7 408 b 12 378 -7 387 1 378 b 30 391 20 378 27 384 b 111 548 30 392 85 533 b 259 473 113 547 180 473 b 335 499 283 473 309 480 b 343 514 339 503 343 507 b 324 533 343 525 335 533 b 259 510 312 533 294 510 b 195 530 243 510 222 515 b 138 575 153 555 144 567 b 114 589 130 586 122 589 b 79 568 99 589 87 576 b 87 597 88 594 87 594 z "},"s":{"ha":296,"x_min":0,"x_max":0,"o":"m 118 515 b 136 534 123 515 136 522 b 102 563 136 555 121 563 b 15 500 66 563 15 534 b 68 437 15 475 34 461 b 7 382 43 423 23 407 b -9 338 -5 365 -9 350 b 28 301 -9 312 12 301 l 31 301 b 137 400 72 304 130 363 l 137 407 b 134 423 137 412 136 418 l 146 427 b 165 433 153 429 159 431 b 190 438 174 435 182 437 b 342 498 240 450 294 465 b 350 514 347 502 350 507 b 331 533 350 525 342 533 b 321 529 327 533 324 532 b 189 479 283 503 236 491 b 155 469 178 476 165 472 b 109 454 138 465 123 460 b 84 472 100 461 92 467 b 69 483 79 476 73 480 b 53 500 57 492 53 500 b 102 526 53 500 76 525 b 118 515 104 521 111 515 z m 99 410 l 99 407 b 28 338 99 391 52 340 l 28 340 b 38 362 28 340 28 347 b 99 410 52 384 73 397 z "},"t":{"ha":277,"x_min":0,"x_max":0,"o":"m 113 697 b 94 716 113 708 104 716 b 75 701 85 716 77 709 b 61 654 75 701 69 684 l -3 648 b -20 629 -12 647 -20 639 b -1 610 -20 618 -12 610 b 50 614 -1 610 4 610 b 4 463 39 575 23 526 b -4 418 0 448 -4 433 b 24 366 -4 396 4 376 b 52 359 30 363 38 359 b 324 498 87 359 159 384 b 332 514 330 502 332 507 b 313 533 332 525 324 533 b 104 412 300 533 198 450 b 50 399 80 403 61 399 b 41 400 46 399 42 399 b 35 416 37 401 35 408 b 41 452 35 430 39 446 b 91 617 62 522 79 576 l 195 623 b 213 643 205 624 213 633 b 194 662 213 654 205 662 b 102 656 193 662 102 656 b 111 692 107 677 111 692 b 113 697 111 693 113 696 z "},"u":{"ha":454,"x_min":0,"x_max":0,"o":"m 510 514 b 491 533 510 525 502 533 b 296 464 486 533 384 464 l 286 464 b 255 475 270 465 259 471 b 220 567 240 490 250 567 b 205 562 216 567 210 564 b 111 460 179 547 165 499 b 61 438 111 460 80 438 b 49 456 49 438 49 449 b 75 544 49 487 75 536 b 56 563 75 555 66 563 b 38 552 47 563 41 559 b 11 454 30 534 11 491 b 28 410 11 437 15 420 b 64 399 30 408 42 399 b 206 506 94 399 142 418 b 296 426 210 446 248 426 b 502 499 368 426 464 472 b 510 514 507 503 510 507 z "},"v":{"ha":380,"x_min":0,"x_max":0,"o":"m 155 566 b 62 406 123 566 102 454 b 64 551 62 437 64 494 b 45 570 64 562 56 570 b 26 551 34 570 26 562 b 24 369 26 479 24 369 b 43 350 24 358 33 350 b 140 472 87 350 119 423 b 229 423 159 437 191 423 b 427 499 294 423 377 463 b 435 514 431 503 435 507 b 416 533 435 525 427 533 b 229 460 412 533 302 460 b 171 495 203 460 182 469 b 168 514 168 502 167 507 b 174 547 168 519 174 540 b 155 566 174 557 165 566 z "},"w":{"ha":481,"x_min":0,"x_max":0,"o":"m 536 514 b 518 533 536 525 529 533 b 507 529 514 533 510 532 b 326 463 456 494 377 463 b 271 495 297 463 277 472 b 283 543 281 514 283 530 b 260 576 283 566 273 576 b 241 562 252 576 244 571 b 233 511 236 543 233 526 l 233 502 b 203 445 220 477 213 461 b 174 415 191 423 180 415 b 153 490 157 415 153 457 b 156 529 153 509 155 525 l 156 530 b 153 553 157 536 159 548 l 151 556 l 144 560 l 137 560 b 127 556 137 560 133 560 b 121 545 127 555 123 556 b 65 411 119 540 88 450 b 62 450 64 422 62 435 b 66 545 62 487 66 529 b 47 564 66 556 58 564 b 28 545 37 564 28 556 b 24 449 28 532 24 488 b 26 412 24 435 24 423 b 61 358 27 404 38 358 b 119 434 76 358 95 376 b 172 378 126 399 148 378 b 236 426 193 378 216 393 b 251 453 241 435 247 444 b 327 423 267 433 294 423 b 528 498 388 423 465 456 b 536 514 533 502 536 507 z "},"x":{"ha":354,"x_min":0,"x_max":0,"o":"m 184 631 b 80 499 155 631 180 590 b 24 605 42 563 50 605 b 5 586 14 605 5 597 b 50 475 5 585 19 525 b -58 392 15 446 -23 419 b -65 377 -62 388 -65 382 b -46 358 -65 366 -57 358 b -35 362 -42 358 -38 359 b 73 444 -1 388 37 414 b 175 399 104 411 138 399 b 400 498 252 399 336 454 b 410 514 406 502 410 507 b 391 533 410 525 401 533 b 178 437 369 533 267 437 b 103 468 151 437 125 445 b 203 612 193 548 203 610 b 184 631 203 623 195 631 z "},"y":{"ha":463,"x_min":0,"x_max":0,"o":"m 167 335 b 90 165 152 293 121 205 b 60 164 71 141 65 151 b 56 186 57 171 56 178 b 167 335 56 229 94 296 z m 88 563 b 69 581 88 574 80 581 b 8 456 41 581 8 511 b 52 389 8 423 20 395 b 66 388 57 388 61 388 b 151 427 99 388 129 406 b 212 495 175 450 195 477 b 183 385 203 453 190 410 b 43 267 140 365 87 339 b 19 184 26 239 19 209 b 68 113 19 142 39 113 b 118 142 83 113 102 121 b 214 358 156 191 191 286 b 312 400 244 372 278 385 b 509 499 384 430 457 463 b 517 514 514 503 517 507 b 498 533 517 525 509 533 b 487 529 494 533 490 532 b 228 406 446 500 446 500 b 254 532 245 468 254 507 b 232 564 254 555 245 564 b 66 425 199 564 132 425 b 58 426 64 425 61 426 b 46 453 50 427 46 438 b 64 525 46 475 53 503 b 77 545 71 537 77 545 b 88 563 83 548 88 556 z "},"z":{"ha":339,"x_min":0,"x_max":0,"o":"m 118 263 b -7 148 95 235 58 189 b 153 342 9 193 72 274 b 118 263 144 309 129 277 z m 197 420 b 140 467 191 439 176 467 b 127 465 136 467 132 465 b 145 519 140 487 145 505 b 77 579 145 557 113 579 b 23 529 52 579 54 552 b 0 511 14 522 0 515 b 16 481 0 487 0 481 b 31 486 19 481 27 484 b 91 540 66 502 68 540 l 94 540 b 107 518 100 540 107 532 b 39 423 107 499 92 467 b 14 388 15 403 14 403 l 19 380 l 23 377 b 30 376 26 376 27 376 b 140 429 54 376 90 425 l 141 429 b 161 396 148 429 160 427 b -24 198 92 345 18 269 b -47 134 -31 187 -47 159 b -37 107 -47 123 -45 114 b -22 102 -33 104 -27 102 b 134 224 19 102 100 180 b 193 336 164 262 182 297 b 201 370 197 350 198 363 b 397 514 210 396 397 491 b 378 533 397 525 389 533 b 197 420 373 533 363 528 z "},"A":{"ha":646,"x_min":0,"x_max":0,"o":"m 468 911 b 570 590 471 911 548 823 b 534 594 557 591 547 594 l 515 594 b 293 555 463 591 377 576 l 232 538 b 468 911 301 673 423 911 z m 502 49 b 517 30 502 42 502 30 b 572 132 544 30 557 80 l 572 133 b 612 463 595 218 612 338 b 609 541 612 488 610 514 b 643 534 620 538 632 536 l 646 534 b 665 551 654 534 662 541 l 665 553 b 651 572 666 563 659 571 b 606 582 636 575 621 578 b 499 935 595 719 563 850 b 475 949 494 943 484 948 l 468 949 b 195 543 403 949 298 745 b 186 525 193 536 189 532 b 79 476 144 510 106 494 b 71 461 73 473 71 468 b 85 442 71 454 71 442 b 96 445 90 442 94 444 b 161 476 111 456 134 465 b 129 415 148 449 136 426 b 127 412 129 414 127 414 b 68 201 98 346 68 277 b 84 183 68 191 75 183 l 85 183 b 103 202 95 184 102 193 l 103 203 b 159 399 103 270 130 334 b 209 494 170 418 189 453 b 514 556 260 511 426 551 l 522 556 b 574 549 540 556 556 553 l 574 536 b 576 450 575 506 576 477 b 510 64 576 235 529 83 b 502 49 506 60 502 56 z "},"B":{"ha":602,"x_min":0,"x_max":0,"o":"m 336 536 b 389 543 346 538 369 543 b 420 537 401 543 412 541 b 532 350 499 491 532 420 b 289 91 532 222 426 91 b 96 179 228 91 161 117 b 84 184 94 182 88 184 b 79 183 83 184 80 183 l 141 399 b 203 453 203 453 202 452 b 336 536 243 476 290 505 z m 269 830 b 420 916 316 888 373 916 b 517 823 475 916 517 882 b 488 731 517 798 507 766 b 317 570 458 678 391 620 b 171 500 292 563 233 541 l 262 822 b 269 830 264 825 266 827 z m 294 935 b 275 954 294 945 286 954 b 256 940 267 954 259 948 l 228 838 b 77 430 153 735 107 571 b 33 157 46 281 33 157 l 33 155 b 52 137 33 144 41 137 b 69 151 60 137 66 142 l 71 152 b 288 53 144 81 218 53 b 570 351 445 53 570 203 b 439 570 570 434 532 515 b 399 581 427 576 414 579 b 555 822 513 671 555 755 b 481 940 555 879 524 921 b 420 952 463 948 442 952 b 285 901 377 952 328 936 l 293 930 b 294 935 293 932 294 933 z "},"C":{"ha":785,"x_min":0,"x_max":0,"o":"m 648 727 b 667 746 659 727 667 735 b 494 968 667 765 625 968 b 391 933 464 968 430 958 b 33 241 218 822 33 469 b 71 100 33 184 45 136 b 205 39 96 65 137 39 b 589 190 288 39 410 79 b 747 335 652 229 697 288 b 753 350 751 339 753 345 b 734 368 753 361 745 368 b 568 221 711 368 644 269 b 206 76 458 152 312 76 b 100 122 161 76 125 90 b 69 240 79 152 69 193 b 492 932 69 490 324 932 b 537 920 507 932 524 928 b 629 742 572 899 606 845 b 648 727 631 734 639 727 z "},"D":{"ha":699,"x_min":0,"x_max":0,"o":"m 179 610 l 80 275 b 179 610 92 372 119 488 z m 256 743 b 494 941 357 887 435 941 b 628 674 586 941 628 807 b 625 618 628 655 627 636 b 480 278 614 495 567 365 b 220 172 416 214 332 172 b 94 189 180 172 138 178 z m 296 882 b 277 899 296 892 288 899 b 259 886 269 899 262 894 l 222 760 b 33 110 43 499 33 228 b 52 91 33 99 41 91 b 69 104 60 91 66 96 l 84 152 b 220 134 133 140 178 134 b 667 677 533 134 667 434 b 495 979 667 841 605 979 b 472 978 488 979 480 979 b 286 842 393 966 328 891 l 296 876 z "},"E":{"ha":791,"x_min":0,"x_max":0,"o":"m 739 990 b 324 898 735 990 559 963 b 267 941 316 928 296 941 b 109 876 228 941 172 917 b 33 791 52 841 33 811 b 58 766 33 776 43 766 l 61 766 b 136 796 79 768 109 783 b 179 815 152 804 168 811 b 270 844 209 825 240 834 b 290 849 277 845 283 848 b 218 586 286 803 286 802 b 194 566 205 583 194 581 b 208 548 194 557 201 551 b 107 186 114 227 114 222 l 107 184 b 103 136 104 167 103 151 b 197 38 103 76 127 38 b 446 117 251 38 330 61 b 593 193 498 141 548 168 b 659 228 617 206 639 218 b 670 244 665 231 670 237 b 651 263 670 254 662 263 b 590 233 647 263 624 251 b 197 75 490 180 292 75 b 149 95 174 75 157 81 b 140 141 144 104 140 121 b 144 179 140 152 141 164 b 248 555 153 236 247 551 l 492 613 b 506 632 500 614 506 623 b 487 650 506 643 498 650 b 262 597 484 650 479 650 b 328 860 305 731 327 800 b 742 954 465 898 604 930 b 758 971 751 955 758 962 b 739 990 758 982 750 990 z m 92 817 b 266 905 122 845 222 905 b 282 899 273 905 278 903 b 288 887 285 897 286 892 b 99 819 174 854 171 853 b 92 817 96 818 95 818 z "},"F":{"ha":1093,"x_min":0,"x_max":0,"o":"m 418 450 b 382 365 418 438 414 418 b 407 449 384 372 385 372 b 418 450 411 450 414 449 z m 195 427 b 354 476 218 449 266 476 b 195 427 300 464 245 448 z m 1061 964 b 1010 983 1061 981 1054 983 l 979 983 b 49 842 666 978 350 882 b 33 823 39 841 33 833 b 52 804 33 812 42 804 b 488 883 84 804 216 830 b 387 513 481 856 439 700 b 351 514 374 514 363 514 b 137 401 221 514 137 444 b 149 380 137 392 141 385 b 161 376 153 377 157 376 b 365 439 184 376 222 407 b 308 248 335 336 335 338 b 203 4 275 198 203 87 b 205 -16 203 -3 203 -9 b 228 -41 208 -31 217 -41 b 251 -26 236 -41 244 -35 b 343 232 266 -4 289 54 b 456 446 434 373 456 407 l 456 457 b 722 479 547 472 639 479 b 741 498 732 479 741 487 b 722 517 741 509 732 517 b 438 492 633 517 536 509 b 423 503 434 496 429 500 b 530 891 480 705 529 888 b 1042 945 690 921 819 945 b 1061 964 1053 945 1061 954 z "},"G":{"ha":728,"x_min":0,"x_max":0,"o":"m 636 822 b 655 841 647 822 655 830 b 511 985 655 844 629 985 b 481 982 502 985 492 983 b 33 256 294 948 33 593 b 52 107 33 206 38 156 b 157 12 61 69 90 12 b 518 267 227 12 338 71 b 505 156 513 239 505 195 b 534 69 505 117 513 81 b 551 65 540 66 545 65 b 593 96 572 65 593 83 b 574 115 593 107 585 115 b 552 103 563 115 560 107 b 544 167 548 115 544 136 b 574 330 544 205 551 259 b 696 502 606 368 696 476 b 674 521 696 514 688 521 b 541 349 643 521 586 480 b 159 49 499 298 278 49 b 130 54 148 49 138 50 b 88 117 113 62 98 80 b 71 255 76 161 71 208 b 509 947 71 587 346 947 b 564 929 529 947 548 941 b 636 822 617 888 608 822 z "},"H":{"ha":952,"x_min":0,"x_max":0,"o":"m 161 224 b 83 397 148 335 117 365 b 73 408 79 401 76 406 b 235 480 106 453 194 472 b 161 224 209 395 184 311 z m 882 869 b 883 844 883 861 883 852 b 834 703 883 788 864 742 z m 399 978 b 380 997 399 989 391 997 b 362 982 370 997 363 990 b 247 521 328 804 288 659 b 34 407 81 492 34 441 b 41 388 34 399 37 393 b 81 347 49 378 76 353 b 129 149 107 311 129 245 b 125 75 129 126 127 102 b 91 -96 125 73 91 -81 b 111 -114 91 -103 99 -114 b 129 -99 119 -114 126 -110 b 163 69 144 -52 157 7 b 277 487 197 217 236 349 b 625 530 408 507 540 510 b 762 587 670 541 719 560 l 604 33 b 602 27 604 31 602 28 b 621 9 602 16 610 9 b 639 23 629 9 636 15 l 811 624 b 920 848 859 666 920 739 b 902 954 920 880 914 916 b 884 966 899 962 892 966 b 865 952 876 966 868 960 l 779 644 b 617 567 730 605 670 579 b 289 526 545 549 415 544 b 399 975 328 661 366 803 z "},"I":{"ha":655,"x_min":0,"x_max":0,"o":"m 123 50 b 81 46 109 43 92 43 b 123 50 88 47 98 50 z m 477 920 b 549 967 509 958 532 967 b 579 956 563 967 572 962 b 477 920 549 936 491 922 z m 392 94 b 373 113 392 104 384 113 b 202 83 372 113 273 83 l 198 83 b 248 315 214 125 198 111 b 448 876 273 412 350 716 b 625 956 530 887 625 921 b 614 977 625 963 621 970 b 548 1005 594 994 571 1005 l 544 1005 b 426 911 529 1005 486 1002 b 399 910 418 911 408 910 b 323 943 365 910 326 917 b 304 959 321 952 313 959 b 285 941 293 959 285 951 b 397 872 285 932 289 872 l 401 872 b 172 142 286 667 178 213 b 159 85 170 118 165 99 b 121 87 145 87 133 87 b 34 54 77 87 41 80 b 33 47 34 52 33 50 b 98 5 33 24 62 5 b 178 46 125 5 155 16 b 206 45 187 45 197 45 b 378 75 266 45 323 60 b 392 94 387 77 392 85 z "},"J":{"ha":711,"x_min":0,"x_max":0,"o":"m 678 970 b 659 989 678 981 670 989 b 650 986 656 989 652 987 b 517 955 613 966 564 955 b 425 970 484 955 452 960 b 418 971 423 971 420 971 b 399 952 407 971 399 963 b 411 935 399 944 404 937 b 519 917 444 922 481 917 b 613 929 551 917 583 921 b 369 235 521 761 430 465 b 260 84 339 123 300 84 b 132 198 212 84 163 142 b 71 429 96 263 71 349 b 163 620 71 509 96 582 b 172 636 168 623 172 629 b 153 655 172 646 164 655 b 33 435 142 655 35 602 l 33 427 b 262 45 33 241 152 45 b 406 225 317 45 372 96 b 601 818 486 526 553 709 b 674 958 648 926 674 958 b 678 970 677 960 678 966 z "},"K":{"ha":798,"x_min":0,"x_max":0,"o":"m 241 537 b 77 85 203 416 151 269 b 71 160 73 106 71 132 b 122 384 71 233 87 323 b 241 537 146 426 189 479 z m 359 1027 b 340 1008 349 1027 340 1019 l 340 1005 b 342 981 342 998 342 990 b 267 618 342 878 269 623 b 90 403 190 540 125 464 b 33 156 50 335 33 235 b 76 30 33 84 47 30 l 81 30 b 107 60 94 33 100 43 b 236 400 159 190 202 302 b 594 285 346 326 476 285 b 694 296 629 285 662 289 b 709 313 703 297 709 304 b 690 332 709 324 701 332 l 686 332 b 594 323 656 326 627 323 b 251 435 481 323 355 362 b 248 437 251 435 250 437 b 300 598 269 496 285 549 b 754 966 304 602 582 880 b 765 983 761 968 765 977 b 746 1002 765 993 757 1002 b 321 673 727 1002 556 898 b 378 983 370 853 378 943 b 377 1012 378 1002 377 1010 b 359 1027 376 1021 369 1027 z "},"L":{"ha":745,"x_min":0,"x_max":0,"o":"m 125 161 b 80 137 114 153 102 142 b 125 161 88 144 103 153 z m 495 937 b 476 956 495 948 487 956 b 457 941 467 956 460 949 b 182 218 420 796 320 396 b 33 130 90 194 33 165 b 34 119 33 127 33 123 b 71 98 38 106 52 98 b 203 184 103 98 152 122 b 694 251 374 228 604 244 b 712 270 704 252 712 260 b 693 289 712 281 703 289 b 237 232 689 289 422 273 b 495 937 388 465 495 929 z "},"M":{"ha":1053,"x_min":0,"x_max":0,"o":"m 978 217 b 1020 608 978 221 1020 511 l 1020 609 b 922 977 1020 799 1002 977 b 906 974 917 977 911 975 b 631 481 804 947 678 623 b 642 751 635 571 642 667 l 642 785 b 514 1010 640 850 635 1010 b 468 1004 500 1010 486 1008 b 254 715 389 982 313 845 b 313 929 254 718 313 920 b 294 948 313 940 305 948 b 277 935 286 948 279 943 b 33 102 212 692 99 335 l 33 98 b 52 79 33 87 41 79 b 69 92 60 79 66 84 b 477 967 91 167 319 925 b 514 972 490 971 502 972 b 604 785 562 972 600 935 l 604 751 b 591 410 604 647 591 521 b 594 335 591 384 593 359 b 612 317 595 326 602 317 b 631 336 623 317 631 326 b 916 937 631 406 817 910 l 920 937 b 966 850 945 937 960 875 b 982 609 977 798 982 718 b 940 222 978 479 940 222 l 940 220 b 959 201 940 209 948 201 b 978 217 968 201 977 208 z "},"N":{"ha":860,"x_min":0,"x_max":0,"o":"m 741 115 b 760 96 741 104 749 96 b 777 111 768 96 774 103 b 827 540 804 212 827 378 b 651 971 827 762 784 971 b 598 962 635 971 617 968 b 141 300 468 917 283 591 b 256 745 224 582 256 712 b 237 764 256 755 248 764 b 218 746 228 764 218 755 b 125 377 217 723 198 631 b 34 68 79 217 34 68 b 33 62 34 66 33 64 b 52 43 33 52 41 43 b 69 56 60 43 66 49 b 610 926 73 65 423 861 b 647 933 624 930 636 933 b 789 541 753 933 789 745 b 742 121 789 384 768 217 b 741 115 742 119 741 117 z "},"O":{"ha":704,"x_min":0,"x_max":0,"o":"m 669 575 l 669 579 b 671 636 670 600 671 618 b 430 979 671 887 547 979 b 227 826 332 979 240 916 b 33 312 88 624 33 449 b 34 271 33 298 33 285 b 106 88 41 195 66 132 b 262 20 146 43 202 20 b 669 575 433 20 642 205 z m 308 648 b 327 667 319 648 327 656 b 311 692 327 673 320 681 b 263 800 292 715 263 751 l 263 811 b 297 865 297 860 297 861 b 292 879 297 871 296 875 b 430 941 323 917 376 941 b 633 637 528 941 633 863 b 631 578 633 618 632 598 b 263 60 606 233 415 60 b 72 274 165 60 84 130 b 71 312 71 286 71 298 b 231 762 71 429 115 585 b 308 648 244 708 290 648 z "},"P":{"ha":673,"x_min":0,"x_max":0,"o":"m 220 567 b 75 50 191 416 149 210 b 220 567 88 145 137 347 z m 446 952 b 483 958 460 956 472 958 b 602 766 564 958 602 873 b 282 331 602 582 488 331 b 210 340 259 331 235 334 b 231 426 217 369 225 397 b 290 738 255 540 273 650 b 446 952 327 815 391 937 z m 202 304 b 283 293 231 297 258 293 b 640 766 511 293 640 562 b 486 996 640 892 591 996 l 484 996 b 305 849 425 996 378 975 b 293 853 302 850 300 853 b 254 749 278 853 275 853 b 52 137 251 743 121 461 b 33 9 39 80 33 38 b 60 -38 33 -23 41 -38 b 76 -28 66 -38 73 -34 b 202 304 132 68 171 184 z "},"Q":{"ha":833,"x_min":0,"x_max":0,"o":"m 290 667 b 141 518 279 667 206 623 b 118 595 125 538 118 566 b 438 958 118 738 282 958 b 621 810 506 958 571 917 b 671 587 646 757 671 681 b 576 281 671 498 647 393 b 456 294 540 288 499 294 b 389 289 434 294 412 293 b 373 270 380 288 373 279 b 392 251 373 259 382 251 l 395 251 l 458 256 b 553 247 490 256 522 252 b 194 7 453 106 300 7 b 71 161 122 7 71 53 b 92 305 71 201 77 248 b 152 461 106 357 126 411 b 269 434 175 449 210 434 b 427 460 309 434 361 441 b 441 479 435 463 441 471 b 422 498 441 490 433 498 b 264 473 415 498 339 473 b 170 494 231 473 197 479 b 309 648 245 618 309 624 b 290 667 309 659 301 667 z m 616 273 b 709 591 684 384 709 492 b 534 971 709 777 617 924 b 441 996 505 987 473 996 b 79 595 263 996 79 762 b 121 484 79 552 92 513 b 33 164 76 401 33 273 b 117 -14 33 85 56 18 b 194 -31 140 -26 165 -31 b 594 239 321 -31 487 83 b 781 171 697 213 770 171 b 800 190 792 171 800 179 b 789 208 800 198 796 205 b 616 273 732 235 674 258 z "},"R":{"ha":613,"x_min":0,"x_max":0,"o":"m 312 718 b 293 736 312 728 304 736 b 244 688 286 736 267 730 b 385 956 290 888 335 956 b 427 943 399 956 412 951 b 544 734 509 894 544 817 b 282 392 544 591 438 434 b 190 406 250 400 218 403 l 206 491 b 304 703 228 555 274 684 b 312 718 309 705 312 711 z m 574 168 b 343 373 574 171 525 307 b 581 734 490 437 581 591 b 448 975 581 829 540 920 b 385 996 425 989 404 996 b 170 500 260 996 212 728 b 140 407 160 472 151 439 b 41 373 62 406 41 388 b 65 347 41 361 53 351 b 119 342 79 343 99 343 b 33 33 118 339 33 43 b 52 14 33 22 41 14 b 178 342 66 14 118 39 b 282 353 225 343 248 345 b 537 160 378 328 480 273 b 555 149 540 153 548 149 b 574 168 564 149 574 157 z "},"S":{"ha":807,"x_min":0,"x_max":0,"o":"m 510 372 b 541 376 518 373 530 376 b 564 365 552 376 562 373 b 567 345 566 358 567 351 b 308 53 567 235 377 61 b 510 372 308 91 392 208 z m 711 810 b 730 791 711 799 719 791 b 747 803 738 791 745 796 b 773 924 765 850 773 891 b 732 1009 773 963 761 993 b 682 1021 719 1017 701 1021 b 33 411 486 1021 33 643 b 84 301 33 368 49 331 b 157 278 103 285 127 278 b 373 331 214 278 289 302 b 453 357 401 340 429 349 b 270 50 335 193 270 98 b 288 19 270 35 275 26 b 305 15 293 16 298 15 b 604 345 389 15 604 206 b 601 373 604 354 604 363 b 540 412 598 385 587 412 b 557 444 557 437 557 438 b 538 463 557 454 549 463 b 488 406 529 463 529 463 b 206 323 406 387 293 339 b 156 317 187 320 171 317 b 109 330 134 317 118 321 b 69 414 81 353 69 381 b 681 985 69 618 521 985 b 732 954 707 985 726 975 b 736 925 735 945 736 936 b 711 810 736 878 711 815 z "},"T":{"ha":1073,"x_min":0,"x_max":0,"o":"m 256 922 b 104 884 184 907 106 884 b 256 922 127 897 189 922 z m 437 768 b 388 907 430 841 414 879 b 484 924 420 913 453 918 b 437 768 468 871 452 818 z m 1021 978 b 1040 997 1032 978 1040 986 b 1024 1016 1040 1006 1034 1015 l 894 1025 l 869 1025 b 610 987 783 1023 696 1008 b 513 967 582 981 548 974 l 511 967 b 502 966 509 967 505 967 b 347 939 453 956 400 948 b 252 960 319 954 286 960 b 33 864 148 960 33 902 b 46 845 33 857 37 850 b 65 841 50 842 56 841 b 156 860 80 841 106 845 b 342 899 205 875 273 887 b 401 723 391 865 401 787 b 395 628 401 675 396 636 b 311 353 366 537 338 446 b 239 77 305 335 239 144 b 241 60 239 69 239 64 b 247 53 243 58 247 53 l 259 50 b 281 88 274 50 277 64 b 347 340 290 146 311 214 b 431 618 399 481 418 536 b 526 932 463 719 494 822 b 618 951 559 939 590 944 b 894 987 709 972 803 987 b 1019 978 936 987 978 985 z "},"U":{"ha":814,"x_min":0,"x_max":0,"o":"m 449 160 b 468 141 449 149 457 141 b 487 159 479 141 487 149 l 487 160 b 548 380 496 201 529 315 b 781 943 590 435 781 700 b 751 1010 781 960 781 1010 l 746 1010 b 699 952 736 1009 724 1008 b 514 397 673 897 617 753 b 171 103 418 271 297 163 b 140 95 159 98 149 95 b 71 260 91 95 71 164 b 262 869 71 453 152 760 b 267 883 266 873 267 878 b 248 902 267 894 259 902 b 39 376 213 902 77 696 b 33 267 37 359 33 316 b 100 65 33 190 45 95 b 137 57 111 60 123 57 b 187 69 153 57 170 61 b 487 307 297 121 399 206 b 449 160 464 224 449 170 z m 743 955 l 743 943 b 582 495 743 821 682 652 b 743 955 636 674 704 882 z "},"V":{"ha":985,"x_min":0,"x_max":0,"o":"m 952 1009 b 933 1028 952 1020 944 1028 b 918 1020 930 1028 924 1027 b 479 354 808 880 612 593 b 255 46 415 240 301 46 b 247 49 252 46 250 47 b 229 133 235 57 229 91 b 231 164 229 142 231 153 b 244 392 233 228 243 309 l 244 425 b 56 777 244 551 225 735 l 52 777 b 33 758 41 777 33 769 b 206 420 33 709 206 777 l 206 392 b 193 132 203 297 193 202 b 195 79 193 111 193 94 b 252 8 201 43 220 8 b 339 65 274 8 304 24 b 644 556 435 176 498 328 b 948 997 742 707 838 857 b 952 1009 951 1000 952 1005 z "},"W":{"ha":1036,"x_min":0,"x_max":0,"o":"m 52 807 b 33 788 41 807 33 799 b 113 663 33 757 87 788 b 126 481 123 609 126 547 b 125 320 126 426 125 372 b 175 115 125 220 132 137 b 193 111 180 113 187 111 b 430 693 275 111 355 407 b 453 553 449 662 453 612 b 450 380 453 500 450 439 b 560 81 450 259 465 138 b 654 53 594 61 625 53 b 935 387 793 53 879 259 b 1004 705 977 487 1004 601 b 719 1035 1004 886 925 1035 b 681 1034 707 1035 694 1035 b 663 1015 671 1032 663 1024 b 682 996 663 1004 673 996 l 684 997 b 718 998 696 998 707 998 b 966 707 903 998 966 863 b 901 401 966 602 939 490 b 652 91 842 263 765 91 b 579 114 629 91 605 98 b 488 384 502 161 488 263 l 488 426 b 491 548 490 468 491 509 b 488 614 491 571 491 594 b 431 746 483 670 471 720 b 419 750 427 749 422 750 b 395 708 406 750 400 728 b 193 149 350 534 254 172 b 164 248 191 149 170 149 b 163 315 163 269 163 292 b 164 484 163 368 164 426 b 151 671 164 551 161 616 b 52 807 123 802 53 807 z "},"X":{"ha":979,"x_min":0,"x_max":0,"o":"m 930 1053 b 911 1072 930 1063 922 1072 b 899 1066 907 1072 902 1069 b 494 510 705 905 604 704 b 434 410 475 476 454 442 b 275 943 275 587 275 849 b 256 962 275 954 267 962 b 237 943 245 962 237 954 l 237 918 b 414 377 237 777 262 538 b 33 -22 201 42 33 14 b 52 -41 33 -33 41 -41 b 61 -38 56 -41 58 -39 b 441 350 236 69 349 206 b 766 231 524 274 633 231 b 932 251 818 231 873 237 b 947 270 940 252 947 260 b 928 289 947 281 939 289 b 924 288 926 289 925 288 b 764 267 867 274 812 267 b 461 382 637 267 537 311 b 526 492 484 419 506 456 b 922 1038 637 686 736 883 b 930 1053 926 1042 930 1047 z "},"Y":{"ha":991,"x_min":0,"x_max":0,"o":"m 894 403 b 875 422 894 414 886 422 b 861 415 869 422 865 419 b 811 362 850 401 833 382 b 899 784 856 513 883 662 b 956 1001 907 845 929 914 b 958 1009 958 1004 958 1006 b 939 1029 958 1021 948 1029 b 921 1016 932 1029 925 1025 b 886 925 917 1008 907 981 b 575 395 863 867 727 609 b 264 103 486 269 353 103 b 210 136 243 103 225 114 b 176 263 184 174 176 217 b 244 658 176 387 244 530 b 217 777 244 700 237 741 b 160 811 205 800 183 811 b 33 685 103 811 33 751 b 61 614 33 662 41 637 b 76 608 65 610 71 608 b 95 627 87 608 95 616 b 71 684 95 642 71 652 b 72 697 71 688 71 693 b 157 773 79 738 125 773 b 183 760 168 773 178 769 b 206 659 199 730 206 696 b 138 264 206 540 138 396 b 179 115 138 212 149 161 b 262 65 202 80 231 65 b 863 792 444 65 743 566 b 753 307 831 572 796 438 b 326 -130 484 58 403 -16 b 263 -286 277 -202 263 -252 b 286 -343 263 -323 279 -339 b 309 -349 293 -347 301 -349 b 416 -300 338 -349 372 -327 b 788 288 591 -172 711 54 b 894 403 826 323 894 385 z m 309 -311 l 304 -311 l 304 -309 b 301 -285 301 -301 301 -293 b 726 231 301 -155 549 71 b 309 -311 555 -225 338 -309 z "},"Z":{"ha":1255,"x_min":0,"x_max":0,"o":"m 880 151 b 899 170 891 151 899 159 b 774 252 899 172 895 252 b 498 175 715 252 627 233 b 1222 840 930 481 1222 696 b 1214 879 1222 853 1219 867 b 878 985 1187 941 1074 985 b 418 929 757 985 602 968 b 34 774 294 903 57 844 b 33 768 34 773 33 770 b 52 749 33 757 41 749 b 176 823 80 749 37 772 b 875 947 301 869 618 947 b 1114 913 966 947 1050 937 b 1184 840 1149 899 1184 880 b 1067 659 1184 802 1154 746 b 513 232 967 559 711 372 b 248 39 252 47 252 47 b 247 31 247 37 247 34 b 264 11 247 22 252 11 b 278 15 269 11 273 12 b 639 189 305 27 464 133 b 773 214 684 203 732 214 b 861 164 817 214 852 201 b 880 151 864 156 872 151 z "}," ":{"ha":407,"x_min":0,"x_max":0,"o":""}}}
